:SAMPLES-PER-SECOND 30
:FULLY-SPECIFIED
:DEGREES
148
root  -56.4677 38.811 5.11895 90.9648 86.5222 96.9266
RightUpLeg  20.693 -2.19289 -7.13042
RightLeg  15.8728 8.64876 0.754281
RightFoot  -21.9418 0.183752 3.59201
RightToes  -5.8209e-011 0 -3.6325e-017
Spine  4.29499 0.142909 0.111119
Spine1  13.7014 0.96956 -2.11938
HEad  -17.8137 2.35483 -0.678109
LeftShoulder1  -0.345321 4.4631 -29.8602
LeftArm  -15.5206 6.99063 -32.7033
LeftForeArm  82.0266 -78.7226 -102.637
LeftHand  -0.0564016 1.10203 1.3947
RightShoulder  -0.622719 -5.2444 29.0376
RightArm  -13.2209 -13.5007 37.6088
RightForeArm  116.845 69.5984 146.975
RightHand  -0.175738 -0.739393 -4.27276
LeftUpLeg  -16.9996 5.44277 -1.96589
LeftLeg  19.4297 2.34435 1.27255
LeftFoot  3.85742 -0.310809 2.13828
LeftToes  -8.31281e-010 4.41007e-011 3.74621e-011
149
root  -55.4619 38.8294 4.75528 79.7529 86.1669 85.6369
RightUpLeg  19.5387 2.21211 -7.0494
RightLeg  20.5399 5.03001 2.0707
RightFoot  -20.293 0.487125 8.08628
RightToes  -5.8209e-011 0 -3.6325e-017
Spine  3.99717 0.59254 -0.346003
Spine1  13.7464 1.59498 -3.36248
HEad  -16.5014 2.07834 -0.885146
LeftShoulder1  -0.333771 4.42898 -29.9261
LeftArm  -15.1126 7.16202 -32.8342
LeftForeArm  79.485 -78.8231 -100.076
LeftHand  -0.0505811 0.889691 1.1905
RightShoulder  -0.603748 -5.17798 29.2989
RightArm  -13.1409 -14.0799 37.5369
RightForeArm  116.5 70.3784 145.526
RightHand  -0.127698 -1.26957 -3.41069
LeftUpLeg  -16.3648 5.81845 -2.65078
LeftLeg  21.6182 2.67296 1.50106
LeftFoot  1.22787 -0.295427 2.60687
LeftToes  -8.31281e-010 4.41007e-011 3.74621e-011
150
root  -54.5656 38.9365 4.37566 66.3418 85.4763 72.2193
RightUpLeg  16.217 0.79064 -9.73154
RightLeg  28.3906 6.47586 3.55859
RightFoot  -16.2992 0.458129 13.5142
RightToes  -5.8209e-011 0 -3.6325e-017
Spine  4.50187 1.05645 -1.11933
Spine1  13.325 2.01644 -4.51301
HEad  -15.7903 1.42058 -1.79082
LeftShoulder1  -0.311614 4.37123 -29.7787
LeftArm  -15.234 8.24003 -33.1286
LeftForeArm  79.7406 -78.7932 -100.584
LeftHand  -0.0748836 0.839379 1.82162
RightShoulder  -0.605019 -5.18661 29.1866
RightArm  -12.4787 -13.8396 37.8329
RightForeArm  113.796 71.1674 143.635
RightHand  -0.200763 0.242952 -4.20803
LeftUpLeg  -14.9041 6.3891 -3.55258
LeftLeg  22.0463 3.27668 1.79928
LeftFoot  -0.626079 -0.265051 2.87004
LeftToes  -8.31281e-010 4.41007e-011 3.74621e-011
151
root  -53.6663 39.091 4.00652 64.2206 85.0796 70.3494
RightUpLeg  11.7767 -0.552314 -11.5343
RightLeg  37.7779 5.76206 4.47467
RightFoot  -8.61171 -0.35493 14.8985
RightToes  -5.8209e-011 0 -3.6325e-017
Spine  5.5754 1.02097 -2.11344
Spine1  12.2668 1.70298 -4.20215
HEad  -14.4153 1.42379 -2.55532
LeftShoulder1  -0.314577 4.36951 -30.1928
LeftArm  -15.4184 9.25267 -32.4718
LeftForeArm  83.0777 -78.6465 -104.017
LeftHand  -0.0691264 0.943013 1.67897
RightShoulder  -0.558805 -5.08053 28.6507
RightArm  -11.7924 -13.6892 37.9168
RightForeArm  112.889 71.5515 142.698
RightHand  -0.186938 0.467964 -3.77252
LeftUpLeg  -12.8143 6.7916 -4.21725
LeftLeg  21.627 3.2791 1.77182
LeftFoot  -2.11831 -0.234028 3.04738
LeftToes  -8.31281e-010 4.41007e-011 3.74621e-011
152
root  -52.7982 39.2508 3.71078 45.5732 84.2473 51.2039
RightUpLeg  5.06655 0.0688751 -11.7386
RightLeg  47.4387 3.7108 3.98724
RightFoot  -0.0603513 -1.09938 10.8879
RightToes  -5.8209e-011 0 -3.6325e-017
Spine  5.15242 1.55992 -2.1816
Spine1  12.356 2.30921 -4.87679
HEad  -14.9232 2.66927 -3.15462
LeftShoulder1  -0.275473 4.2792 -29.3667
LeftArm  -16.0756 10.0364 -32.5718
LeftForeArm  86.3432 -78.5162 -106.827
LeftHand  -0.0413604 1.08512 0.967445
RightShoulder  -0.573249 -5.12348 28.6154
RightArm  -11.1488 -12.8272 37.9973
RightForeArm  112.426 71.6997 142.31
RightHand  -0.1843 0.0858282 -3.9407
LeftUpLeg  -11.4471 8.26574 -4.17609
LeftLeg  21.1766 3.5972 1.79006
LeftFoot  -3.63983 -0.157502 2.66834
LeftToes  -8.31281e-010 4.41007e-011 3.74621e-011
153
root  -51.9729 39.3904 3.4225 39.9473 83.6559 45.939
RightUpLeg  0.397373 -0.468636 -12.0998
RightLeg  54.1908 2.20445 2.91637
RightFoot  1.34619 -0.995649 8.97551
RightToes  -5.8209e-011 0 -3.6325e-017
Spine  6.14103 1.75264 -2.72551
Spine1  11.7614 2.32294 -4.86809
HEad  -15.0052 3.03006 -3.58526
LeftShoulder1  -0.253594 4.22488 -29.0121
LeftArm  -16.0659 10.4351 -32.1182
LeftForeArm  87.6248 -78.3425 -108.96
LeftHand  -0.0671308 0.965068 1.65054
RightShoulder  -0.568771 -5.11283 28.5444
RightArm  -10.7201 -12.2829 37.9039
RightForeArm  112.104 71.5975 142.49
RightHand  -0.206183 0.0453072 -4.43802
LeftUpLeg  -9.1134 8.45249 -4.30091
LeftLeg  20.3361 4.37803 1.70911
LeftFoot  -4.85296 -0.120986 2.65641
LeftToes  -8.31281e-010 4.41007e-011 3.74621e-011
154
root  -51.1565 39.5782 3.15576 35.266 83.7392 41.7162
RightUpLeg  -3.582 -1.60085 -11.7846
RightLeg  58.0377 1.7133 2.52292
RightFoot  0.37699 -0.807612 7.89356
RightToes  -5.8209e-011 0 -3.6325e-017
Spine  6.59367 1.51989 -2.97637
Spine1  12.0084 1.89902 -4.37924
HEad  -15.6922 3.43126 -3.68968
LeftShoulder1  -0.316997 4.40319 -29.0772
LeftArm  -16.3689 10.3376 -31.7134
LeftForeArm  89.0592 -78.2014 -110.728
LeftHand  -0.067811 1.04519 1.69325
RightShoulder  -0.50387 -4.9458 28.0758
RightArm  -10.6812 -11.5263 38.7047
RightForeArm  111.905 71.7871 142.045
RightHand  -0.202205 -0.0653877 -4.40473
LeftUpLeg  -6.45653 8.27741 -3.96516
LeftLeg  18.9494 4.95774 1.37395
LeftFoot  -5.63354 -0.112347 2.93009
LeftToes  -8.31281e-010 4.41007e-011 3.74621e-011
155
root  -50.3705 39.715 2.93441 32.0466 84.109 38.3874
RightUpLeg  -7.79657 -2.83069 -10.937
RightLeg  59.4326 1.51019 2.29475
RightFoot  -0.594974 -0.73751 7.77971
RightToes  -5.8209e-011 0 -3.6325e-017
Spine  7.05561 1.37165 -3.13974
Spine1  11.3304 1.55819 -3.85755
HEad  -15.4071 2.96562 -3.58104
LeftShoulder1  -0.230507 4.16043 -28.9487
LeftArm  -16.4306 10.1832 -31.7975
LeftForeArm  88.9312 -78.2264 -110.468
LeftHand  -0.0615384 0.659911 1.44596
RightShoulder  -0.592402 -5.17904 28.596
RightArm  -10.7053 -11.4042 38.3018
RightForeArm  112.82 71.7176 142.323
RightHand  -0.152399 -0.564558 -3.62939
LeftUpLeg  -4.71077 7.65924 -3.67435
LeftLeg  17.9567 5.54775 1.20628
LeftFoot  -6.4743 -0.0916676 3.08287
LeftToes  -8.31281e-010 4.41007e-011 3.74621e-011
156
root  -49.5795 39.8032 2.73665 28.3933 84.4662 34.699
RightUpLeg  -11.5157 -3.34387 -9.55132
RightLeg  58.3808 1.35135 1.92249
RightFoot  -1.18954 -0.598125 6.62337
RightToes  -5.8209e-011 0 -3.6325e-017
Spine  7.24816 1.0883 -3.38888
Spine1  11.1865 1.07898 -3.19933
HEad  -15.5172 3.02757 -3.1583
LeftShoulder1  -0.272321 4.27594 -29.1208
LeftArm  -16.8737 9.81586 -32.0386
LeftForeArm  90.0698 -78.1274 -111.698
LeftHand  -0.067016 1.16451 1.67941
RightShoulder  -0.495077 -4.91884 28.1355
RightArm  -11.1916 -11.7462 38.9994
RightForeArm  112.869 71.3892 143.044
RightHand  -0.197411 -0.331527 -4.51732
LeftUpLeg  -2.99217 7.78633 -3.2384
LeftLeg  17.2131 5.42114 0.781626
LeftFoot  -7.52913 -0.0675904 3.38216
LeftToes  -8.31281e-010 4.41007e-011 3.74621e-011
157
root  -48.7565 39.8636 2.55999 25.9878 84.6457 32.277
RightUpLeg  -14.3927 -3.3002 -8.32547
RightLeg  54.5582 1.53836 1.9118
RightFoot  -2.07549 -0.524136 6.37477
RightToes  -5.8209e-011 0 -3.6325e-017
Spine  7.18082 0.841951 -3.64245
Spine1  11.275 0.766107 -2.85209
HEad  -15.4186 3.29943 -2.36793
LeftShoulder1  -0.28231 4.3094 -28.8873
LeftArm  -17.4137 9.43587 -32.6023
LeftForeArm  91.8041 -78.0559 -112.862
LeftHand  -0.0390767 1.34376 0.931643
RightShoulder  -0.518248 -4.98219 28.223
RightArm  -11.4302 -11.4736 39.1695
RightForeArm  112.453 71.246 143.289
RightHand  -0.227494 0.199287 -4.78417
LeftUpLeg  -1.17793 7.54759 -3.07122
LeftLeg  16.4068 5.66394 0.549872
LeftFoot  -8.53828 -0.0316949 3.40216
LeftToes  -8.31281e-010 4.41007e-011 3.74621e-011
158
root  -47.938 39.8761 2.40832 25.9313 85.0422 32.0807
RightUpLeg  -16.3244 -3.40059 -7.3502
RightLeg  48.1174 2.17176 2.2726
RightFoot  -3.84199 -0.583412 8.43806
RightToes  -5.8209e-011 0 -3.6325e-017
Spine  7.21188 0.54677 -4.07717
Spine1  11.1999 0.316204 -2.16852
HEad  -15.7705 3.28385 -1.88877
LeftShoulder1  -0.27457 4.28186 -29.1216
LeftArm  -17.7545 9.19916 -32.6837
LeftForeArm  93.4844 -77.9242 -114.413
LeftHand  -0.0328487 1.37212 0.745915
RightShoulder  -0.535623 -5.03192 28.2364
RightArm  -11.9285 -11.4544 39.2465
RightForeArm  113.285 70.8533 144.203
RightHand  -0.216378 0.782041 -4.16739
LeftUpLeg  0.343997 7.52943 -2.98829
LeftLeg  15.8222 5.44114 0.294551
LeftFoot  -9.62909 0.00418794 3.58949
LeftToes  -8.31281e-010 4.41007e-011 3.74621e-011
